<svg width="384" height="512" viewBox="0 0 384 512" fill="none" xmlns="http://www.w3.org/2000/svg">
<path d="M134.554 51.7L123.754 192.6C122.654 207.2 114.954 220.4 102.854 228.6C78.9538 244.8 61.0538 269.4 53.7538 298.9L52.4538 304H167.954V216C167.954 202.7 178.654 192 191.954 192C205.254 192 215.954 202.7 215.954 216V304H331.454L330.154 298.9C322.754 269.4 304.954 244.8 281.054 228.7C268.954 220.5 261.254 207.2 260.154 192.7L249.354 51.7C249.254 50.5 249.254 49.2 249.254 48H134.754C134.754 49.2 134.754 50.5 134.654 51.7H134.554ZM167.954 352H31.9538C22.0538 352 12.7538 347.5 6.75384 339.7C0.753839 331.9 -1.44616 321.8 0.953839 312.2L7.15384 287.2C17.4538 245.9 42.5538 211.5 75.8538 188.9L83.0538 96L86.7538 48H55.9538C51.5538 48 47.3538 46.8 43.7538 44.7C36.7538 40.5 31.9538 32.8 31.9538 24C31.9538 10.7 42.6538 0 55.9538 0H86.7538H297.154H327.954C341.254 0 351.954 10.7 351.954 24C351.954 32.8 347.154 40.5 340.154 44.7C336.554 46.8 332.454 48 327.954 48H297.154L300.854 96L307.954 188.9C341.254 211.5 366.354 246 376.654 287.2L382.854 312.2C385.254 321.8 383.054 331.9 377.054 339.7C371.054 347.5 361.654 352 351.854 352H215.954V488C215.954 501.3 205.254 512 191.954 512C178.654 512 167.954 501.3 167.954 488V352Z" fill="white"/>
</svg>
